# xmcd
#
# Track frame offsets:
#      150
#      15715
#      36040
#      56957
#      73660
#      94915
#      119812
#      147235
#      166487
#      196302
#      215440
#      232890
# 
# Disc length: 3389 seconds
#
# Revision: 5
# Processed by: cddbd v1.5.1PL0 Copyright (c) Steve Scherf et al.
#
# Submitted via: FreeRIP 1.21
#
DISCID=b20d3b0c
DTITLE=soda stereo/ dinamo - soda stereo/ dinamo
DYEAR=1900
DGENRE=blues
TTITLE0=secuencia inicial
TTITLE1=toma la ruta
TTITLE2=en remolinos
TTITLE3=primavera 0
TTITLE4=camaleOn
TTITLE5=luna roja
TTITLE6=sweet sahumerio
TTITLE7=ameba
TTITLE8=nuestra fe
TTITLE9=claro oscuro
TTITLE10=fuE
TTITLE11=texturas
EXTD=
EXTT0=
EXTT1=
EXTT2=
EXTT3=
EXTT4=
EXTT5=
EXTT6=
EXTT7=
EXTT8=
EXTT9=
EXTT10=
EXTT11=
PLAYORDER=
